 http://img708.imageshack.us/img708/6655/20100807lasoga.jpg

Country.......: Dominican Republic
Genre.........: Drama, Crime
Date release..: 2009 [World]
Director......: Josh Crook
Writers.......: Manny Perez
Duration......: 102 min.
More..........: http://www.imdb.com/title/tt1269696
Trailer.......: http://www.imdb.com/video/imdb/vi3739747865
Trailer.......:

Pilot :
A cop works against his country's corrupt government in order to find justice on a case. 

Cats :
Manny Perez   	 ...  	Luisito
Denise Quinones 	... 	Jenny
Juan Fernandez 	... 	General Colon
Paul Calderon 	... 	Rafa
Hemky Madera 	... 	Tavo
Alfonso Rodriguez 	... 	Franco
Joseph Lyle Taylor 	... 	Simon Burr
Margo Martindale 	... 	Flannigan
Fantino Fernandez 	... 	Young Luisito
Jaime Tirelli 	... 	Belgrado
Robinson Aybar 	... 	Efrain
Nelson Baez 	... 	The Butcher
Ericson Batista 	... 	Boy at the hotel room
Carmen Brugal 	... 	Dona Irma
Coco Cabrera 	... 	Carlos Batista 

Data Technical :
!!! SAMPLE !!!
Audio.....: Spanish
Subtitles.: Hard English
Format                           : AVI
Format/Info                      : Audio Video Interleave
File size                        : 697 MiB
Duration                         : 1h 42mn
Overall bit rate                 : 953 Kbps
Writing application              : VirtualDubMod 1.5.10.2 (build 2540/release)
Writing library                  : VirtualDubMod build 2540/release
Video
ID                               : 0
Format                           : MPEG-4 Visual
Format profile                   : Advanced Simple@L5
Format settings, BVOP            : Yes
Format settings, QPel            : No
Format settings, GMC             : No warppoints
Format settings, Matrix          : Default (H.263)
Muxing mode                      : Packed bitstream
Codec ID                         : XVID
Codec ID/Hint                    : XviD
Duration                         : 1h 42mn
Bit rate                         : 813 Kbps
Width                            : 640 pixels
Height                           : 272 pixels
Display aspect ratio             : 2.35:1
Frame rate                       : 23.976 fps
Color space                      : YUV
Chroma subsampling               : 4:2:0
Bit depth                        : 8 bits
Scan type                        : Progressive
Bits/(Pixel*Frame)               : 0.195
Stream size                      : 595 MiB (85%)
Writing library                  : XviD 1.2.1 (UTC 2008-12-04)
Audio
ID                               : 1
Format                           : MPEG Audio
Format version                   : Version 1
Format profile                   : Layer 3
Mode                             : Joint stereo
Mode extension                   : MS Stereo
Codec ID                         : 55
Codec ID/Hint                    : MP3
Duration                         : 1h 42mn
Bit rate mode                    : Variable
Bit rate                         : 128 Kbps
Channel(s)                       : 2 channels
Sampling rate                    : 48.0 KHz
Stream size                      : 92.8 MiB (13%)
Alignment                        : Aligned on interleaves
Interleave, duration             : 24 ms (0.58 video frame)
Interleave, preload duration     : 145 ms
Writing library                  : LAME3.90.
Encoding settings                : -m j -V 4 -q 2 -lowpass 17.6 --abr 128

Screen : 
http://img823.imageshack.us/img823/749/lasoga2009s1.jpg 
http://img713.imageshack.us/img713/3953/lasoga2009s2.jpg 
http://img713.imageshack.us/img713/7193/lasoga2009s3.jpg 
http://img90.imageshack.us/img90/9760/lasoga2009s4.jpg 
http://img713.imageshack.us/img713/4615/lasoga2009s5.jpg